<?xml version="1.0" encoding="utf-8"?>
<!-- Generator: Adobe Illustrator 23.0.1, SVG Export Plug-In . SVG Version: 6.00 Build 0)  -->
<svg version="1.1" id="Capa_1" xmlns="http://www.w3.org/2000/svg" xmlns:xlink="http://www.w3.org/1999/xlink" x="0px" y="0px"
	 viewBox="0 0 612 612" style="enable-background:new 0 0 612 612;" xml:space="preserve">
<style type="text/css">
	.st0{fill:#9E1981;}
</style>
<g>
	<g id="Book">
		<g>
			<path class="st0" d="M577,43.7H454.6c-64.2,0-118.3,18.7-148.6,48.1c-30.3-29.3-84.4-48.1-148.6-48.1H35c-19.3,0-35,15.7-35,35
				v402.2c0,19.3,15.7,35,35,35h122.4c46.6,0,97.3,20,115.4,39c8.2,8.6,19.6,13.5,31.5,13.5h3.5c11.8,0,23.1-4.8,31.3-13.4
				c18.1-19,68.8-39,115.5-39H577c19.3,0,35-15.7,35-35V78.7C612,59.4,596.3,43.7,577,43.7z M279.8,492
				c-31.1-17.9-73.8-28.7-122.4-28.7H52.5V96.2h104.9c74.7,0,122.4,31.1,122.4,52.5L279.8,492L279.8,492z M559.5,463.4H454.6
				c-48.6,0-91.3,10.8-122.4,28.7V148.6c0-21.4,47.7-52.5,122.4-52.5h104.9L559.5,463.4L559.5,463.4z"/>
		</g>
	</g>
</g>
</svg>
