<?xml version="1.0" encoding="utf-8"?>
<!-- Generator: Adobe Illustrator 23.0.1, SVG Export Plug-In . SVG Version: 6.00 Build 0)  -->
<svg version="1.1" id="Capa_1" xmlns="http://www.w3.org/2000/svg" xmlns:xlink="http://www.w3.org/1999/xlink" x="0px" y="0px"
	 viewBox="0 0 21.8 21.8" style="enable-background:new 0 0 21.8 21.8;" xml:space="preserve">
<style type="text/css">
	.st0{fill:#9E1981;stroke:#9E1981;stroke-width:0.5;stroke-miterlimit:10;}
</style>
<g>
	<path class="st0" d="M14.5,13c0.3-0.3,0.7-0.3,1,0c0.3,0.3,0.3,0.7,0,1l-4.3,4.3c-0.1,0.1-0.3,0.2-0.5,0.2c-0.2,0-0.4-0.1-0.5-0.2
		L6,14c-0.3-0.3-0.3-0.7,0-1s0.7-0.3,1,0l3,3V5.2c0-0.4,0.3-0.7,0.7-0.7c0.4,0,0.7,0.3,0.7,0.7v10.8L14.5,13z"/>
	<path class="st0" d="M18.7,21.4H2.8c-0.4,0-0.7-0.3-0.7-0.7v0c0-0.4,0.3-0.7,0.7-0.7h15.9c0.4,0,0.7,0.3,0.7,0.7v0
		C19.4,21.1,19.1,21.4,18.7,21.4z"/>
</g>
</svg>
