<?xml version="1.0" encoding="utf-8"?>
<!-- Generator: Adobe Illustrator 23.0.1, SVG Export Plug-In . SVG Version: 6.00 Build 0)  -->
<svg version="1.1" id="Laag_1" xmlns="http://www.w3.org/2000/svg" xmlns:xlink="http://www.w3.org/1999/xlink" x="0px" y="0px"
	 viewBox="0 0 512 512" style="enable-background:new 0 0 512 512;" xml:space="preserve">
<style type="text/css">
	.st0{fill:#9E1981;stroke:#9E1981;stroke-width:19;stroke-miterlimit:10;}
</style>
<path class="st0" d="M256,472.6c-6.9,0-13.6-2.5-18.8-7.1c-19.7-17.2-38.6-33.4-55.4-47.6l-0.1-0.1C132.6,376,90.3,339.9,60.8,304.4
	c-33-39.8-48.3-77.5-48.3-118.7c0-40,13.7-76.9,38.6-104c25.2-27.3,59.8-42.4,97.4-42.4c28.1,0,53.9,8.9,76.5,26.4
	c11.4,8.8,21.8,19.7,30.9,32.3c9.1-12.6,19.5-23.5,30.9-32.3c22.7-17.5,48.4-26.4,76.5-26.4c37.6,0,72.2,15.1,97.4,42.4
	c24.9,27,38.6,63.9,38.6,104c0,41.2-15.3,78.9-48.3,118.6c-29.5,35.6-71.8,71.7-120.9,113.5c-16.8,14.3-35.8,30.5-55.5,47.7
	C269.6,470.1,262.9,472.6,256,472.6z M148.5,67.9c-29.5,0-56.7,11.8-76.4,33.2c-20,21.7-31.1,51.8-31.1,84.6
	c0,34.6,12.9,65.6,41.7,100.4c27.9,33.7,69.4,69,117.4,110l0.1,0.1c16.8,14.3,35.8,30.5,55.7,47.9c19.9-17.4,39-33.6,55.8-48
	c48-40.9,89.5-76.3,117.4-110c28.9-34.8,41.7-65.8,41.7-100.4c0-32.8-11-62.9-31.1-84.6c-19.7-21.4-46.9-33.2-76.4-33.2
	c-21.6,0-41.5,6.9-59.1,20.5c-15.6,12.1-26.5,27.4-32.9,38.1c-3.3,5.5-9.1,8.8-15.5,8.8s-12.2-3.3-15.5-8.8
	c-6.4-10.7-17.3-26-32.9-38.1C190.1,74.8,170.2,67.9,148.5,67.9z"/>
</svg>
