<?xml version="1.0" encoding="utf-8"?>
<!-- Generator: Adobe Illustrator 23.0.1, SVG Export Plug-In . SVG Version: 6.00 Build 0)  -->
<svg version="1.1" id="Capa_1" xmlns="http://www.w3.org/2000/svg" xmlns:xlink="http://www.w3.org/1999/xlink" x="0px" y="0px"
	 viewBox="0 0 55.9 55.9" style="enable-background:new 0 0 55.9 55.9;" xml:space="preserve">
<style type="text/css">
	.st0{fill:#FFDF5C;stroke:#9E1981;stroke-miterlimit:10;}
</style>
<path class="st0" d="M55.8,21.6c-0.1-0.4-0.4-0.6-0.8-0.7l-18.1-2.6L28.8,1.9c-0.2-0.3-0.5-0.6-0.9-0.6S27.2,1.5,27,1.9l-8.1,16.4
	L0.9,20.9C0.5,21,0.2,21.2,0,21.6c-0.1,0.4,0,0.8,0.3,1l13.1,12.8l-3.1,18c-0.1,0.4,0.1,0.8,0.4,1c0.3,0.2,0.7,0.3,1.1,0.1l16.2-8.5
	l16.2,8.5c0.1,0.1,0.3,0.1,0.5,0.1c0.2,0,0.4-0.1,0.6-0.2c0.3-0.2,0.5-0.6,0.4-1l-3.1-18l13.1-12.8C55.8,22.3,55.9,21.9,55.8,21.6z"
	/>
<path class="st0" d="M54.9,21.8c-0.1-0.4-0.4-0.6-0.8-0.7l-17.5-2.5L28.8,2.7c-0.2-0.3-0.5-0.5-0.9-0.5c-0.4,0-0.7,0.2-0.9,0.5
	l-7.8,15.9L1.8,21.1c-0.4,0.1-0.7,0.3-0.8,0.7c-0.1,0.3,0,0.7,0.2,1l12.7,12.3l-3,17.4c-0.1,0.4,0.1,0.7,0.4,0.9
	c0.3,0.2,0.7,0.2,1,0.1l15.6-8.2l15.6,8.2c0.1,0.1,0.3,0.1,0.5,0.1c0.2,0,0.4-0.1,0.6-0.2c0.3-0.2,0.4-0.6,0.4-0.9l-3-17.4
	l12.7-12.3C54.9,22.5,55,22.1,54.9,21.8z"/>
</svg>
